<?xml version="1.0" encoding="UTF-8"?><svg id="Layer_1" xmlns="http://www.w3.org/2000/svg" xmlns:xlink="http://www.w3.org/1999/xlink" viewBox="0 0 416.39 184.81"><defs><style>.cls-1{fill:url(#linear-gradient);}</style><linearGradient id="linear-gradient" x1="0" y1="92.41" x2="416.39" y2="92.41" gradientUnits="userSpaceOnUse"><stop offset="0" stop-color="#764bdb"/><stop offset="1" stop-color="#1b1158"/></linearGradient></defs><path class="cls-1" d="M98.84,92.05c-1.18,0-2.52-.22-4.01-.65-1.49-.43-2.99-1-4.48-1.71-1.49-.71-2.91-1.53-4.24-2.48-1.34-.94-2.44-1.96-3.3-3.06-.94,1.1-2.04,2.02-3.3,2.77-1.26.75-2.52,1.12-3.77,1.12-1.1,0-2.12-.25-3.06-.77-.94-.51-1.73-1.14-2.36-1.89-.63-.75-1.12-1.53-1.47-2.36-.35-.82-.53-1.59-.53-2.3,0-1.1.22-2.14.65-3.12.43-.98.98-1.92,1.65-2.83.67-.9,1.38-1.77,2.12-2.59.75-.83,1.47-1.67,2.18-2.53,0-1.02-.06-1.77-.18-2.24-.12-.47-.18-1.33-.18-2.59,0-3.3.49-6.5,1.47-9.61.98-3.1,2.42-5.85,4.3-8.25,1.89-2.4,4.18-4.34,6.9-5.83,2.71-1.49,5.79-2.24,9.25-2.24,3.69,0,6.99.94,9.9,2.83,2.91,1.89,5.38,4.32,7.43,7.31,2.04,2.99,3.61,6.31,4.72,9.96,1.1,3.65,1.65,7.25,1.65,10.79,0,1.81-.1,3.07-.29,3.77-.2.71-.37,1.46-.53,2.24.39,1.02.96,1.91,1.71,2.65.75.75,1.57,1.36,2.48,1.83.9.47,1.79.83,2.65,1.06.86.24,1.65.35,2.36.35,1.81,0,3.24-.63,4.3-1.89,1.06-1.26,2.18-2.48,3.36-3.65.78-.78,1.63-1.43,2.53-1.94.9-.51,2.02-.77,3.36-.77,1.96,0,3.69.67,5.19,2,1.49,1.34,2.24,3.03,2.24,5.07,0,1.1-.22,2.14-.65,3.12-.43.98-.96,1.91-1.59,2.77-.94,1.26-2.1,2.48-3.48,3.65-1.38,1.18-2.89,2.24-4.54,3.18-1.65.94-3.38,1.69-5.19,2.24-1.81.55-3.65.83-5.54.83-1.57,0-3.22-.27-4.95-.83-1.73-.55-3.42-1.24-5.07-2.06-1.65-.83-3.2-1.73-4.66-2.71-1.46-.98-2.65-1.9-3.6-2.77-1.57,1.1-3.18,2.06-4.83,2.89-1.65.83-3.85,1.24-6.6,1.24ZM96.37,53.5c-1.41,0-2.58.39-3.48,1.18-.9.79-1.61,1.75-2.12,2.89-.51,1.14-.87,2.36-1.06,3.65-.2,1.3-.29,2.5-.29,3.59,0,1.65.25,3.24.77,4.77.51,1.53,1.18,2.89,2,4.07s1.81,2.1,2.95,2.77c1.14.67,2.38,1,3.71,1,2.12,0,3.75-.83,4.89-2.48,1.14-1.65,1.71-3.38,1.71-5.19,0-1.02-.14-2.46-.41-4.3-.28-1.85-.75-3.65-1.41-5.42-.67-1.77-1.59-3.3-2.77-4.6s-2.67-1.94-4.48-1.94ZM131.61,32.4c.08-1.33.43-2.49,1.06-3.48.63-.98,1.46-1.81,2.48-2.47,1.02-.67,2.16-1.16,3.42-1.47,1.26-.31,2.55-.47,3.89-.47,1.57,0,2.89.31,3.95.94,1.06.63,1.92,1.4,2.59,2.3.67.9,1.14,1.85,1.41,2.83.27.98.41,1.83.41,2.53,0,2.52-.73,4.54-2.18,6.07-1.46,1.53-4.15,2.3-8.07,2.3-1.18,0-2.32-.08-3.42-.24-1.1-.16-2.06-.53-2.89-1.12-.83-.59-1.47-1.49-1.94-2.71-.47-1.22-.71-2.89-.71-5.01ZM132.32,64.94c-.16-1.96.31-3.67,1.41-5.13,1.1-1.45,3.06-2.18,5.89-2.18.79,0,1.93.29,3.42.88,1.49.59,2.59,1.67,3.3,3.24.71,1.73,1.26,3.89,1.65,6.48.39,2.59.9,5.09,1.53,7.49.63,2.4,1.49,4.46,2.59,6.19,1.1,1.73,2.71,2.59,4.83,2.59,1.34,0,2.53-.24,3.6-.71,1.06-.47,2-1.08,2.83-1.83.83-.75,1.55-1.55,2.18-2.42.63-.86,1.18-1.69,1.65-2.48.63-1.02,1.51-1.87,2.65-2.53,1.14-.67,2.42-1,3.83-1,2.04,0,3.77.71,5.19,2.12,1.41,1.41,2.12,3.14,2.12,5.19,0,.63-.08,1.3-.24,2-.16.71-.39,1.34-.71,1.89-2.59,4.32-5.66,7.8-9.19,10.43s-8.13,3.95-13.79,3.95c-4.4,0-8.11-1.08-11.14-3.24-3.03-2.16-5.5-4.91-7.43-8.25-1.92-3.34-3.36-7.01-4.3-11.02-.94-4.01-1.57-7.9-1.89-11.67ZM177.58,63.99c.55,0,1.26.12,2.12.35.86.24,1.67.65,2.42,1.24.75.59,1.32,1.38,1.71,2.36.39.98.43,2.18.12,3.59-.16.47-.33,1.3-.53,2.48-.2,1.18-.29,2.4-.29,3.65s.16,2.36.47,3.3c.31.94.9,1.42,1.77,1.42,1.73,0,3.22-.25,4.48-.77,1.26-.51,2.34-1.22,3.24-2.12s1.65-1.92,2.24-3.06c.59-1.14,1.12-2.34,1.59-3.59.47-1.49.88-2.99,1.24-4.48.35-1.49.83-2.85,1.42-4.07.59-1.22,1.31-2.22,2.18-3.01.86-.78,2.08-1.22,3.65-1.3.94,0,1.92.16,2.95.47,1.02.32,1.92.79,2.71,1.41.79.63,1.43,1.38,1.95,2.24.51.87.77,1.81.77,2.83,0,.16-.02.29-.06.41-.04.12-.06.26-.06.41-.87,6.13-1.63,11.08-2.3,14.85-.67,3.77-1.32,7.07-1.95,9.9-.63,2.83-1.22,5.58-1.77,8.25-.55,2.67-1.14,6.05-1.77,10.14,4.56-6.44,8.37-12.16,11.43-17.15,3.06-4.99,5.7-9.41,7.9-13.26.39-.63.88-1.43,1.47-2.42.59-.98,1.08-1.71,1.47-2.18,1.49-1.65,3.38-2.48,5.66-2.48,1.33,0,2.46.26,3.36.77.9.51,1.65,1.14,2.24,1.89.59.75,1.02,1.55,1.3,2.42.28.87.41,1.65.41,2.36,0,1.26-.2,2.28-.59,3.07-1.1,1.65-2.58,3.89-4.42,6.72-1.85,2.83-3.93,5.91-6.25,9.25-2.32,3.34-4.77,6.84-7.37,10.49-2.59,3.65-5.13,7.15-7.6,10.49-2.47,3.34-4.85,6.4-7.13,9.19-2.28,2.79-4.24,5.01-5.89,6.66-.94,8.64-2.03,16.01-3.24,22.1-1.22,6.09-2.67,11.06-4.36,14.91-1.69,3.85-3.71,6.66-6.07,8.43-2.36,1.77-5.15,2.65-8.37,2.65-2.36,0-4.54-.43-6.54-1.3-2-.87-3.73-2.04-5.19-3.54-1.45-1.49-2.59-3.24-3.42-5.25-.83-2-1.24-4.15-1.24-6.42,0-2.91.45-5.83,1.36-8.78.9-2.95,2.36-6.11,4.36-9.49,2-3.38,4.66-7.05,7.96-11.02,3.3-3.97,7.35-8.39,12.14-13.26.55-2.99.98-5.62,1.3-7.9.31-2.28.65-4.68,1-7.19.35-2.52.75-5.36,1.18-8.55.43-3.18,1-7.21,1.71-12.08-2.04,2.2-4.15,3.79-6.31,4.77-2.16.98-4.34,1.47-6.54,1.47s-4.32-.45-6.13-1.36c-1.81-.9-3.32-2.1-4.54-3.59-1.22-1.49-2.14-3.14-2.77-4.95-.63-1.81-.94-3.65-.94-5.54,0-2.2.22-4.34.65-6.42.43-2.08.88-4.03,1.36-5.83.55-1.89,1.69-3.12,3.42-3.71,1.73-.59,3.38-.88,4.95-.88ZM185.95,150.63c-2.83,3.61-4.95,6.99-6.37,10.14-1.41,3.14-2.12,5.66-2.12,7.54,0,.63.16,1.1.47,1.42.31.31.67.47,1.06.47.55,0,1.2-.59,1.94-1.77.75-1.18,1.45-2.71,2.12-4.6.67-1.89,1.26-3.99,1.77-6.31.51-2.32.88-4.62,1.12-6.9ZM267.05,84.74c-.24.94-.65,2.08-1.24,3.42-.59,1.34-1.47,2.61-2.65,3.83-1.18,1.22-2.69,2.24-4.54,3.06-1.85.83-4.11,1.24-6.78,1.24-3.22,0-6.4-.75-9.55-2.24-3.14-1.49-5.95-3.54-8.43-6.13-2.47-2.59-4.48-5.62-6.01-9.08-1.53-3.46-2.3-7.15-2.3-11.08,0-3.61.75-6.82,2.24-9.61,1.49-2.79,3.36-5.15,5.6-7.07,2.24-1.92,4.71-3.38,7.43-4.36,2.71-.98,5.32-1.47,7.84-1.47,2.99,0,5.52.43,7.6,1.3,2.08.87,3.89,2.08,5.42,3.65,1.53,1.57,2.87,3.42,4.01,5.54,1.14,2.12,2.3,4.4,3.48,6.84.55,1.34,1.37,3.08,2.47,5.25,1.1,2.16,2.26,4.3,3.48,6.42,1.22,2.12,2.47,3.95,3.77,5.48s2.46,2.3,3.48,2.3c.94,0,1.77-.24,2.48-.71s1.39-1.06,2.06-1.77c.67-.71,1.34-1.45,2-2.24.67-.78,1.39-1.49,2.18-2.12.63-.63,1.39-1.08,2.3-1.36.9-.27,1.79-.41,2.65-.41,1.89,0,3.57.65,5.07,1.95,1.49,1.3,2.24,3.05,2.24,5.25,0,1.02-.22,2.08-.65,3.18-.43,1.1-.96,1.96-1.59,2.59-2.91,3.14-6.01,5.64-9.31,7.49-3.3,1.85-6.44,2.77-9.43,2.77-2.52,0-4.68-.31-6.48-.94-1.81-.63-3.3-1.47-4.48-2.53-1.18-1.06-2.12-2.32-2.83-3.77-.71-1.45-1.22-3.01-1.53-4.66ZM255.49,73.19c0-1.1-.08-2.42-.23-3.95-.16-1.53-.49-2.99-1-4.36-.51-1.37-1.26-2.55-2.24-3.54-.98-.98-2.26-1.47-3.83-1.47-1.18,0-2.26.29-3.24.88-.98.59-1.81,1.3-2.47,2.12-.67.83-1.2,1.73-1.59,2.71-.39.98-.59,1.87-.59,2.65,0,1.89.43,3.64,1.3,5.25.86,1.61,1.89,3.03,3.06,4.24,1.18,1.22,2.44,2.18,3.77,2.89s2.48,1.06,3.42,1.06c.87,0,1.69-.67,2.48-2,.79-1.33,1.18-3.5,1.18-6.48ZM301.46,85.45c-.87,1.1-1.91,1.81-3.12,2.12-1.22.32-2.02.47-2.42.47-1.89,0-3.6-.69-5.13-2.06-1.53-1.37-2.3-3.16-2.3-5.36,0-1.1.16-1.98.47-2.65.31-.67.9-1.55,1.77-2.65,2.52-3.22,5.03-6.17,7.54-8.84,2.51-2.67,5.01-4.99,7.48-6.96,2.47-1.96,4.91-3.48,7.31-4.54,2.4-1.06,4.77-1.59,7.13-1.59,1.49,0,2.96.22,4.42.65,1.45.43,2.83,1.2,4.12,2.3,1.3,1.1,2.48,2.61,3.54,4.54,1.06,1.93,1.9,4.38,2.54,7.37.86-1.33,1.73-2.75,2.59-4.24.87-1.49,1.75-2.85,2.65-4.07.9-1.22,1.87-2.22,2.89-3.01,1.02-.78,2.12-1.18,3.3-1.18,2.75,0,5.22,1.26,7.43,3.77,2.2,2.52,3.69,5.62,4.48,9.31,1.57-2.36,3.14-4.62,4.71-6.78,1.57-2.16,3.18-4.05,4.83-5.66,1.65-1.61,3.38-2.89,5.19-3.83,1.81-.94,3.73-1.41,5.78-1.41,2.44,0,4.44.73,6.01,2.18,1.57,1.45,2.87,3.26,3.89,5.42,1.02,2.16,1.83,4.52,2.42,7.07.59,2.55,1.12,4.91,1.59,7.07.47,2.16.94,3.97,1.41,5.42.47,1.46,1.14,2.18,2,2.18,1.1,0,2.14-.37,3.12-1.12.98-.75,1.96-1.55,2.95-2.42.98-.86,2.02-1.67,3.12-2.42,1.1-.75,2.36-1.12,3.77-1.12,1.18,0,2.22.22,3.12.65.9.43,1.67,1,2.3,1.71s1.12,1.49,1.47,2.36c.35.87.53,1.69.53,2.48,0,1.96-.82,3.89-2.47,5.78-1.41,1.57-2.79,2.97-4.12,4.18-1.34,1.22-2.71,2.24-4.13,3.07-1.41.83-2.95,1.46-4.6,1.89-1.65.43-3.46.65-5.42.65-3.06,0-5.7-.47-7.9-1.42-2.2-.94-4.09-2.43-5.66-4.48-1.57-2.04-2.89-4.7-3.95-7.96-1.06-3.26-2.03-7.25-2.89-11.96-1.18,1.1-2.3,2.61-3.36,4.54-1.06,1.93-2.12,4.01-3.18,6.25-1.06,2.24-2.16,4.5-3.3,6.78-1.14,2.28-2.38,4.36-3.71,6.25-1.34,1.89-2.83,3.42-4.48,4.6s-3.5,1.77-5.54,1.77c-1.57,0-2.79-.24-3.65-.71-.87-.47-1.49-1.14-1.89-2-.39-.86-.63-1.87-.71-3.01-.08-1.14-.12-2.38-.12-3.71v-2.42c0-1.06-.02-2.16-.06-3.3-.04-1.14-.1-2.24-.18-3.3-.08-1.06-.2-1.9-.35-2.53-1.34,1.41-2.65,3.1-3.95,5.07-1.3,1.96-2.59,4.01-3.89,6.13-1.3,2.12-2.54,4.23-3.71,6.31-1.18,2.08-2.28,3.91-3.3,5.48-.55.86-1.51,1.63-2.89,2.3-1.38.67-2.61,1-3.71,1-2.04,0-3.77-.59-5.19-1.77s-2.12-2.75-2.12-4.71c0-.47.24-1.69.71-3.65.47-1.96.98-4.24,1.53-6.84.55-2.59,1.06-5.25,1.53-7.96.47-2.71.71-5.09.71-7.13,0-1.57-.18-2.81-.53-3.71-.35-.9-.96-1.36-1.83-1.36-1.18,0-2.48.57-3.89,1.71-1.41,1.14-2.87,2.55-4.36,4.24-1.49,1.69-2.97,3.52-4.42,5.48-1.46,1.97-2.77,3.73-3.95,5.3ZM65.59,82.11c4.63,1.27,11.58-14.76,14.83-13.6,2,.71,1.45,7.5.46,14.05-12.98,10.18-18.28,9.8-20.69,8.32-2.38-1.46-3.36-5.6-5.33-13.87-1.64-6.92-2.47-11-5.8-15.47-8.77-11.78-18.23,22.31-19.45,27.62-.99,4.29-6.75,3.57-8.07,0-7.25-19.72-2.2-42.94,7.77-60.92,7.96-14.34,26.95-30.71,44.87-23.45,7.29,2.95,9.33,11.14,6.41,18-3.43,8.07-11.66,12.27-19.96,13.82-10.59,1.97-22.42,3.04-33.2,2.95-8.08-.07-15.73-2.48-22.51-6.83-4.51-2.89-.31-10.07,4.22-7.16,11.95,7.67,24.44,5.45,37.89,4.26,7.42-.65,16.76-.6,22.62-5.88,3.03-2.73,5.61-7.33,2.2-10.47-2.79-2.56-7.45-1.97-10.97-1.22-18.02,3.84-27.7,27.33-29.11,30.7-7.44,17.86-5.33,34.6-3.5,43.24-1.96.22-3.91.43-5.87.65.05-2.72.7-24.45,13.43-32.58,2.13-1.36,6.76-4.38,12-3.15,1.65.39,4.47,1.38,7.79,5.28,9.23,10.85,5.77,24.55,9.95,25.71ZM25.92,95.11c-3.19,0-6.1-1.97-7.18-4.92-5.22-14.2-4.67-31.48,1.21-48.35-5.83-1.06-11.48-3.29-16.63-6.6-3.93-2.52-4.01-7.07-2.08-10.07,2.18-3.39,6.19-4.3,9.55-2.14,4.96,3.18,10,4.51,15.3,4.9.21-.39.42-.77.63-1.15,4.57-8.24,11.95-16.06,19.73-20.92,9.9-6.17,19.88-7.5,28.89-3.86,3.88,1.57,6.75,4.41,8.33,8.21,1.74,4.22,1.64,9.23-.28,13.75-3.42,8.03-11.29,13.56-22.18,15.59-8.31,1.55-17.27,2.54-25.9,2.87-.26.58-.49,1.13-.7,1.63-1.38,3.32-2.43,6.62-3.2,9.85.88-.78,1.82-1.5,2.84-2.15,2.42-1.55,7.9-5.05,14.3-3.55,3.42.81,6.49,2.85,9.39,6.25,5.9,6.93,7.1,14.94,7.9,20.23.21,1.39.48,3.17.78,4.17,1.43-1.07,3.77-4.28,5.12-6.12,3.41-4.66,6.1-8.34,9.71-7.05,3.52,1.26,4.15,5.79,2.42,17.32l-.18,1.18-.94.74c-11.37,8.92-19.03,11.63-24.11,8.52-3.44-2.11-4.52-6.67-6.68-15.74l-.27-1.13c-1.45-6.14-2.25-9.53-5.02-13.25-.46-.62-1.15-1.31-1.54-1.24-3.91.82-10.16,17.24-12.59,27.75-.71,3.06-3.06,5.07-6.14,5.27-.16.01-.32.02-.49.02ZM45.25,56.07c1.82,0,4.08.78,6.23,3.67,3.51,4.72,4.52,8.99,6.05,15.45l.26,1.12c1.48,6.26,2.66,11.2,3.97,12.01.63.39,4.33,1.8,16.33-7.39.51-3.64.67-6.03.68-7.59-.75.95-1.56,2.06-2.21,2.94-3.58,4.89-7.28,9.96-11.77,8.72h0c-3.64-1-4.23-4.9-4.91-9.42-.74-4.9-1.74-11.6-6.53-17.23-3.03-3.56-5.41-4.12-6.19-4.3-3.94-.93-7.63,1.44-9.61,2.71-3.61,2.31-6.14,5.95-7.92,9.92-.16,3.76-.02,7.32.31,10.59,2.99-8.81,7.87-19.77,13.96-21.05.41-.09.87-.14,1.35-.14ZM26.07,42.51c-3.76,10.24-5.4,20.64-4.81,30.28.6-2.46,1.39-5.03,2.43-7.54.41-7.1,1.86-14.82,5.04-22.7-.44,0-.87,0-1.31,0-.45,0-.9-.01-1.35-.03ZM28.51,36.55c.97,0,1.95,0,2.94-.02.4-.81.84-1.65,1.31-2.52-1.03.04-2.04.06-3.08.06-.4.83-.79,1.65-1.17,2.48ZM39.93,33.51c-.57.94-1.1,1.86-1.59,2.76,7.31-.42,14.77-1.32,21.76-2.62,5.12-.95,14.24-3.79,17.75-12.04,1.3-3.05,1.39-6.37.26-9.1-.94-2.28-2.68-3.99-5.03-4.94-15.56-6.29-32.33,7.69-40.13,20.43,1.17-.05,2.35-.13,3.56-.22,5.37-8.03,13.24-16.21,23.78-18.45,4.01-.86,9.78-1.58,13.62,1.95,1.7,1.57,2.6,3.57,2.59,5.79-.02,4.33-3.37,7.81-4.81,9.11-5.85,5.27-14.1,5.87-21.38,6.41-1.02.07-2.02.15-2.98.23-1.38.12-2.74.25-4.1.39-1.1.11-2.19.21-3.28.31ZM7.01,27.88c-.22,0-.47.12-.73.54-.22.34-.63,1.19.27,1.78,4.9,3.14,10.12,5.13,15.59,5.94.35-.82.7-1.63,1.08-2.45-5.28-.66-10.49-2.27-15.68-5.61-.13-.09-.31-.2-.52-.2ZM66.06,14.61c-1.81,0-3.66.39-4.53.58-7.01,1.5-12.72,6.35-17.12,11.86.79-.08,1.58-.15,2.38-.22.99-.09,2.02-.16,3.07-.24,6.32-.46,13.48-.98,17.81-4.88,1.68-1.52,2.82-3.4,2.83-4.68,0-.37-.07-.82-.65-1.35-.89-.82-2.33-1.07-3.78-1.07Z"/></svg>
