<?xml version="1.0" encoding="UTF-8"?><svg id="Layer_1" xmlns="http://www.w3.org/2000/svg" xmlns:xlink="http://www.w3.org/1999/xlink" viewBox="0 0 104.72 105.97"><defs><style>.cls-1{fill:url(#linear-gradient);stroke:url(#linear-gradient-2);stroke-miterlimit:10;stroke-width:5px;}</style><linearGradient id="linear-gradient" x1="6.72" y1="52.99" x2="98" y2="52.99" gradientUnits="userSpaceOnUse"><stop offset="0" stop-color="#764bdb"/><stop offset="1" stop-color="#1b1158"/></linearGradient><linearGradient id="linear-gradient-2" x1="4.22" x2="100.5" xlink:href="#linear-gradient"/></defs><path class="cls-1" d="M89.38,71.12c-1.23-5.05,6.55-7.18,7.78-2.14,2.34,9.59-.1,20.86-8.91,26.45-7.65,4.85-18.56,4.11-24.74-2.77-3.29-3.67-5.06-8.76-6.79-13.29-1.76-4.61-2.62-11.02-5.59-15.04-8.45-11.46-17.57,21.69-18.75,26.86-.95,4.17-6.51,3.47-7.78,0-6.99-19.17-2.12-41.75,7.49-59.23,7.67-13.95,25.97-29.85,43.25-22.8,7.03,2.87,8.99,10.83,6.18,17.5-3.31,7.84-11.24,11.93-19.24,13.43-10.2,1.92-21.61,2.96-32,2.87-7.79-.07-15.17-2.41-21.7-6.64-4.35-2.81-.3-9.79,4.07-6.96,11.52,7.46,23.56,5.3,36.52,4.14,7.15-.64,16.15-.58,21.8-5.72,2.92-2.66,5.4-7.13,2.12-10.18-2.68-2.49-7.18-1.91-10.57-1.19-17.1,3.68-26.39,25.91-28.05,29.85-7.16,16.95-5.82,32.92-4.26,41.77-1.74-.22-3.49-.44-5.23-.66.14-2.91,1.31-22.35,13.4-30.11,2.08-1.33,6.54-4.26,11.57-3.07,2.88.68,5.55,2.41,7.51,5.13,5.82,8.1,5.31,19.71,11.72,27.55,3.61,4.41,10.43,4.62,15,1.58,5.6-3.72,6.68-11.32,5.21-17.34Z"/></svg>
